PathFileType	4	(X/Y/Z)	F:\MotionCapture\20160217\3\Generated_files\2_Test03-Dynamic.trc
DataRate	CameraRate	NumFrames	NumMarkers	Units	OrigDataRate	OrigDataStartFrame	OrigNumFrames
120.00	120.00	       4	39	mm	120.00	421	       841
Frame#	Time	Top.Head			Front.Head			Rear.Head			R.Shoulder			R.Offset			R.Elbow			R.Wrist			L.Shoulder			L.Elbow			L.Wrist			R.ASIS			L.ASIS			V.Sacral			R.Thigh			R.Knee			R.Shank			R.Ankle			R.Heel			R.Toe			L.Thigh			L.Knee			L.Shank			L.Ankle			L.Heel			L.Toe			R1			R2			R3			R4			R5			R6			R7			L1			L2			L3			L4			L5			L6			L7			V_Mid_ASIS			V_Pelvis_Origin			V_R.Hip_JC			V_L.Hip_JC			V_R.Knee_JC			V_L.Knee_JC			V_R.Ankle_JC			V_L.Ankle_JC			V_Mid_Hip			V_Mid_Shoulder			V_R.Hand			V_L.Hand			V_R.Toe_Offset_Static			V_L.Toe_Offset_Static			V_R.Toe_Offset			V_L.Toe_Offset			
		X1	Y1	Z1	X2	Y2	Z2	X3	Y3	Z3	X4	Y4	Z4	X5	Y5	Z5	X6	Y6	Z6	X7	Y7	Z7	X8	Y8	Z8	X9	Y9	Z9	X10	Y10	Z10	X11	Y11	Z11	X12	Y12	Z12	X13	Y13	Z13	X14	Y14	Z14	X15	Y15	Z15	X16	Y16	Z16	X17	Y17	Z17	X18	Y18	Z18	X19	Y19	Z19	X20	Y20	Z20	X21	Y21	Z21	X22	Y22	Z22	X23	Y23	Z23	X24	Y24	Z24	X25	Y25	Z25	X26	Y26	Z26	X27	Y27	Z27	X28	Y28	Z28	X29	Y29	Z29	X30	Y30	Z30	X31	Y31	Z31	X32	Y32	Z32	X33	Y33	Z33	X34	Y34	Z34	X35	Y35	Z35	X36	Y36	Z36	X37	Y37	Z37	X38	Y38	Z38	X39	Y39	Z39	

421	3.500	14.20755	199.45193	1687.09766	-82.06322	188.39395	1586.86047	132.72066	200.51988	1635.84753	105.92428	386.83640	1392.31921	254.09877	125.94817	1254.80688	95.82415	523.36322	1082.03967	-124.52393	494.49554	946.97693	97.37759	-18.55077	1393.38501	237.26115	-130.12279	1117.02625	264.82675	-168.07544	862.26886	81.84626	338.22052	918.04340	43.72152	53.09620	921.51697	285.72995	158.88022	924.47205	131.06975	277.42624	533.63403	246.47905	310.00720	445.42755	301.23309	220.80515	224.52686	405.35339	280.58591	73.97718	470.34885	212.81229	61.19398	265.14975	268.41327	37.15635	-82.64024	79.69656	647.97589	-67.82430	24.99632	477.25922	-137.75780	95.78013	355.86252	-171.17535	33.32207	83.79906	-125.34019	96.33109	39.58494	-302.33444	32.42813	114.67822	215.56895	250.91234	34.36023	256.14780	231.67928	43.55005	349.95624	191.59654	58.13782	426.06442	185.74413	57.87866	441.23203	258.90353	55.28188	369.60977	289.57797	37.20147	305.38943	311.12949	32.17985	-342.61420	51.23843	134.58456	-313.27106	66.63028	122.52517	-232.14099	115.71299	97.03330	-159.01721	124.81538	57.82330	-146.00511	53.17702	48.17725	-217.31267	18.06876	66.85721	-269.29410	5.73740	93.30615	
422	3.508	2.30522	198.89958	1684.89941	-93.56989	187.97646	1584.85095	120.49392	199.65367	1633.87952	94.47031	385.72610	1389.56470	241.48778	125.07941	1251.70203	81.87643	522.50012	1079.86914	-140.09555	493.97253	947.50031	85.07213	-19.64016	1391.38086	226.85287	-130.47177	1115.50745	256.34286	-168.93352	861.13800	69.77901	338.21249	915.87610	30.18218	53.11264	918.73962	272.32114	157.63776	921.55884	123.08064	278.18622	531.79456	239.89951	310.01743	444.82022	297.61313	220.72594	224.75639	404.39465	280.03577	75.64444	469.57666	212.39467	64.20247	265.10208	268.49802	37.12568	-93.75193	81.09614	644.17633	-79.46432	25.64111	474.73325	-152.91684	95.88712	355.77902	-193.86261	33.23094	84.58112	-149.29607	96.53902	39.32388	-324.04193	32.01365	118.16148	215.54456	250.97502	34.17884	256.05142	231.79712	43.51864	349.01935	191.80203	59.15364	425.17111	185.45270	59.86495	440.71249	258.94394	57.84974	369.01413	289.58414	37.89929	305.90793	310.83377	32.18283	-364.39206	51.19228	139.02275	-335.54532	66.57740	126.90075	-254.71465	115.28741	99.46072	-182.76204	124.55614	58.47081	-170.33810	54.37658	48.10779	-240.61447	18.02349	68.26873	-292.25281	5.36503	96.44787																																																	-336.63361	67.62003	126.37730	
423	3.517	-9.67121	197.83701	1683.05310	-105.83442	187.01334	1582.86023	109.01852	198.40990	1631.76172	83.18504	384.76151	1387.06824	229.21516	123.79174	1248.90161	68.34923	521.46832	1077.51489	-154.80412	493.48846	947.43073	73.10789	-20.75033	1389.26123	215.34325	-131.12961	1114.05505	248.04834	-169.40314	859.82019	57.65937	338.11182	913.25574	16.63385	53.09503	916.33557	259.51202	155.92566	919.06287	113.98987	279.28796	529.53473	232.34822	310.18878	444.01053	293.53992	221.40639	225.13773	403.57562	280.23178	77.87434	468.34280	212.81787	67.11533	264.78345	268.48657	37.23635	-104.21629	82.59882	640.15833	-92.23170	25.75800	472.82733	-167.44467	96.39343	355.06784	-214.22101	33.19097	84.52119	-170.46381	96.63501	38.58592	-344.76144	32.39396	120.75433	215.51117	250.97346	34.02987	255.77927	231.93593	43.64426	348.18442	191.87389	60.61380	424.38416	185.37207	62.81778	439.58942	258.83472	60.56961	368.55157	288.71567	38.03380	305.82251	310.95377	32.32766	-383.56360	50.96734	143.35266	-355.23645	67.03692	130.23276	-274.91580	115.52660	100.97145	-204.33424	125.02070	58.44345	-192.24776	54.79460	48.06004	-262.23599	18.08632	70.10227	-311.82336	4.90588	98.82758	
424	3.525	-20.73443	197.13472	1680.83215	-117.90541	186.52638	1580.86902	97.03302	197.64174	1629.60522	71.16254	383.63770	1384.37744	216.44788	122.43809	1245.99670	55.27375	520.31073	1075.27515	-169.25552	492.83127	947.22858	60.36492	-21.88232	1387.13416	204.16635	-131.51804	1112.11108	239.03638	-170.46254	858.36078	44.93725	337.81339	911.19305	2.91234	53.20980	914.00244	246.35464	154.30678	916.72662	104.94688	280.19156	527.52899	224.37427	310.45697	443.59714	289.78745	221.95123	225.11693	402.55618	280.40918	80.83988	467.23590	213.01202	71.09576	264.65952	268.63181	37.27195	-115.94131	84.30009	637.37964	-105.34935	26.06263	471.08948	-181.58340	96.38196	354.09952	-232.32054	33.79162	84.19266	-189.76869	97.08718	37.65448	-362.31650	32.65541	122.47877	215.39102	250.98811	33.82642	256.01352	231.38269	43.47993	347.31638	192.02090	62.29373	423.20099	185.58917	65.83131	439.42804	258.99530	64.00496	368.75809	289.81113	39.57639	305.77682	310.87216	32.20767	-402.10870	51.46621	145.30191	-373.07474	66.85315	132.24550	-293.21509	115.87391	101.55196	-223.18408	125.38857	57.75788	-210.94542	54.94967	47.10854	-280.81610	18.30637	69.92188	-330.07159	4.83065	99.73028	
